<!-- Generated by IcoMoon.io -->
<svg version="1.1" xmlns="http://www.w3.org/2000/svg" width="1024" height="1024" viewBox="0 0 1024 1024">
<title>Favicon</title>
<g id="icomoon-ignore">
</g>
<path fill="#1c1d20" d="M213.333 0h597.333c117.821 0 213.333 95.513 213.333 213.333v597.333c0 117.821-95.513 213.333-213.333 213.333h-597.333c-117.821 0-213.333-95.513-213.333-213.333v-597.333c0-117.821 95.513-213.333 213.333-213.333z"></path>
<path fill="#fafafa" d="M397.833 665.5c-17.638 0-33.472-3.125-47.499-9.374-14.029-6.389-25.139-15.695-33.333-27.917-8.194-12.224-12.292-27.085-12.292-44.585v-6.042h46.458v6.042c0 8.474 1.946 15.904 5.835 22.291 4.028 6.389 9.513 11.319 16.459 14.793 7.083 3.334 15.209 5.001 24.373 5.001 9.862 0 18.266-2.084 25.21-6.251s12.222-10.278 15.834-18.334c3.61-8.194 5.417-18.193 5.417-29.999v-220.209h46.458v220.209c0 19.861-3.819 36.875-11.458 51.042-7.501 14.027-18.195 24.791-32.083 32.29-13.89 7.362-30.347 11.042-49.376 11.042zM593.050 525.5l2.916-63.957-53.749 34.79-16.666-28.749 57.082-29.167-57.082-29.167 16.666-29.167 53.749 34.793-2.916-63.959h32.917l-2.916 63.959 53.749-34.793 16.668 29.167-57.084 29.167 57.084 29.167-16.668 28.749-53.749-34.79 2.916 63.957h-32.917z"></path>
</svg>
