<svg aria-hidden="true" style="position: absolute; width: 0; height: 0; overflow: hidden;" version="1.1" xmlns="http://www.w3.org/2000/svg" xmlns:xlink="http://www.w3.org/1999/xlink">
<defs>
<symbol id="icon-arrow-down" viewBox="0 0 32 32">
<path fill="none" stroke="#fafafa" style="stroke: var(--color1, #fafafa)" stroke-linejoin="miter" stroke-linecap="butt" stroke-miterlimit="4" stroke-width="3.2" d="M24 12l-8 8-8-8"></path>
</symbol>
<symbol id="icon-arrow-left" viewBox="0 0 32 32">
<path fill="none" stroke="#3B3B3B"  stroke-linejoin="round" stroke-linecap="round" stroke-miterlimit="4" stroke-width="2" d="M26.667 16h-21.333"></path>
<path fill="none" stroke="#3B3B3B"  stroke-linejoin="round" stroke-linecap="round" stroke-miterlimit="4" stroke-width="2" d="M13.333 24l-8-8 8-8"></path>
</symbol>
<symbol id="icon-arrow-right" viewBox="0 0 32 32">
<path fill="none" stroke="#fafafa" style="stroke: var(--color1, #fafafa)" stroke-linejoin="round" stroke-linecap="round" stroke-miterlimit="4" stroke-width="2" d="M5.333 16h21.333"></path>
<path fill="none" stroke="#fafafa" style="stroke: var(--color1, #fafafa)" stroke-linejoin="round" stroke-linecap="round" stroke-miterlimit="4" stroke-width="2" d="M18.667 8l8 8-8 8"></path>
</symbol>
<symbol id="icon-arrow-up" viewBox="0 0 32 32">
<path fill="none" stroke="#fafafa" style="stroke: var(--color1, #fafafa)" stroke-linejoin="miter" stroke-linecap="butt" stroke-miterlimit="4" stroke-width="3.2" d="M24 20l-8-8-8 8"></path>
</symbol>
<symbol id="icon-brush" viewBox="0 0 32 32">
<path fill="none" stroke="#fafafa" style="stroke: var(--color1, #fafafa)" stroke-linejoin="round" stroke-linecap="round" stroke-miterlimit="4" stroke-width="2.6667" d="M17.037 20l-5.037-5.037"></path>
<path fill="none" stroke="#fafafa" style="stroke: var(--color1, #fafafa)" stroke-linejoin="round" stroke-linecap="round" stroke-miterlimit="4" stroke-width="2.6667" d="M2.667 29.333c2.667 0 6.144 0.456 7.966-1.367s1.822-4.777 0-6.6c-1.822-1.822-4.777-1.822-6.6 0s0 5.3-1.367 7.967z"></path>
<path fill="none" stroke="#fafafa" style="stroke: var(--color1, #fafafa)" stroke-linejoin="round" stroke-linecap="round" stroke-miterlimit="4" stroke-width="2.6667" d="M10.667 21.333c-0.655-0.655-0.983-0.983-1.168-1.326-0.444-0.823-0.425-1.818 0.050-2.623 0.198-0.336 0.538-0.651 1.218-1.28l13.157-12.183c1.159-1.073 2.959-1.038 4.075 0.078s1.151 2.917 0.078 4.075l-12.183 13.157c-0.63 0.68-0.944 1.020-1.28 1.218-0.805 0.475-1.8 0.495-2.623 0.050-0.343-0.185-0.671-0.513-1.326-1.168z"></path>
</symbol>
<symbol id="icon-hourglass" viewBox="0 0 32 32">
<path fill="none" stroke="#fafafa" style="stroke: var(--color1, #fafafa)" stroke-linejoin="round" stroke-linecap="round" stroke-miterlimit="4" stroke-width="2.6667" d="M24.217 2.667h-16.434c-0.617 0-1.117 0.5-1.117 1.117 0 3.554 1.412 6.962 3.925 9.475l1.626 1.626c0.161 0.161 0.242 0.242 0.3 0.32 0.352 0.473 0.352 1.121 0 1.594-0.058 0.077-0.139 0.158-0.3 0.32l-1.626 1.626c-2.513 2.513-3.925 5.921-3.925 9.475 0 0.617 0.5 1.117 1.117 1.117h16.434c0.617 0 1.117-0.5 1.117-1.117 0-3.554-1.412-6.962-3.925-9.475l-1.626-1.626c-0.161-0.161-0.242-0.242-0.3-0.32-0.353-0.473-0.353-1.121 0-1.594 0.058-0.077 0.139-0.158 0.3-0.32l1.626-1.626c2.513-2.513 3.925-5.921 3.925-9.475 0-0.617-0.5-1.117-1.117-1.117z"></path>
</symbol>
<symbol id="icon-jefferson" viewBox="0 0 141 32">
<path fill="#fafafa" style="fill: var(--color1, #fafafa)" d="M133.416 15.158l0.234-4.936-4.313 2.685-1.337-2.219 4.58-2.251-4.58-2.251 1.337-2.251 4.313 2.685-0.234-4.936h2.641l-0.234 4.936 4.313-2.685 1.337 2.251-4.58 2.251 4.58 2.251-1.337 2.219-4.313-2.685 0.234 4.936h-2.641z"></path>
<path fill="#fafafa" style="fill: var(--color1, #fafafa)" d="M112.987 14.412v10.851h-3.513v-18.297h3.415v3.011h0.244c0.412-0.993 1.057-1.778 1.936-2.357 0.878-0.589 2.006-0.884 3.383-0.884 1.236 0 2.315 0.262 3.236 0.786 0.933 0.513 1.654 1.282 2.163 2.308 0.52 1.026 0.781 2.297 0.781 3.813v11.62h-3.513v-11.194c0-1.32-0.347-2.357-1.041-3.11-0.694-0.764-1.637-1.146-2.83-1.146-0.813 0-1.545 0.185-2.196 0.556-0.64 0.36-1.144 0.878-1.512 1.555s-0.553 1.506-0.553 2.488z"></path>
<path fill="#fafafa" style="fill: var(--color1, #fafafa)" d="M99.36 25.263c-1.69 0-3.17-0.385-4.441-1.155-1.26-0.77-2.239-1.85-2.939-3.24-0.689-1.39-1.033-3.005-1.033-4.844 0-1.861 0.344-3.486 1.033-4.876 0.7-1.401 1.679-2.486 2.939-3.256 1.27-0.77 2.75-1.155 4.441-1.155 1.701 0 3.181 0.385 4.441 1.155s2.239 1.855 2.939 3.256c0.7 1.39 1.050 3.016 1.050 4.876 0 1.839-0.35 3.454-1.050 4.844s-1.679 2.47-2.939 3.24c-1.259 0.77-2.74 1.155-4.441 1.155zM99.36 22.328c1.109 0 2.024-0.289 2.745-0.866s1.254-1.342 1.599-2.294c0.355-0.963 0.533-2.010 0.533-3.144 0-1.155-0.178-2.214-0.533-3.176-0.344-0.962-0.877-1.732-1.599-2.31s-1.636-0.866-2.745-0.866c-1.098 0-2.008 0.289-2.729 0.866-0.711 0.577-1.243 1.347-1.599 2.31s-0.533 2.021-0.533 3.176c0 1.134 0.178 2.181 0.533 3.144 0.355 0.952 0.888 1.716 1.599 2.294 0.721 0.577 1.631 0.866 2.729 0.866z"></path>
<path fill="#fafafa" style="fill: var(--color1, #fafafa)" d="M88.896 11.356l-3.289 0.545c-0.212-0.599-0.606-1.15-1.185-1.652-0.568-0.503-1.419-0.754-2.554-0.754-1.024 0-1.881 0.225-2.571 0.674-0.679 0.438-1.018 1-1.018 1.684 0 0.599 0.228 1.085 0.684 1.46 0.467 0.374 1.207 0.674 2.22 0.898l2.988 0.642c1.703 0.374 2.977 0.962 3.823 1.764s1.269 1.829 1.269 3.080c0 1.080-0.323 2.042-0.968 2.887-0.645 0.834-1.541 1.492-2.688 1.973-1.146 0.47-2.471 0.706-3.973 0.706-2.092 0-3.795-0.433-5.108-1.299s-2.12-2.085-2.421-3.657l3.489-0.513c0.222 0.877 0.673 1.54 1.352 1.989 0.69 0.449 1.58 0.674 2.671 0.674 1.18 0 2.126-0.241 2.838-0.722 0.723-0.481 1.085-1.064 1.085-1.748 0-1.133-0.879-1.898-2.637-2.294l-3.155-0.674c-1.747-0.385-3.038-0.989-3.873-1.813-0.824-0.834-1.235-1.882-1.235-3.144 0-1.059 0.306-1.989 0.918-2.791 0.623-0.802 1.475-1.422 2.554-1.861 1.091-0.449 2.331-0.674 3.723-0.674 2.026 0 3.611 0.422 4.758 1.267 1.157 0.845 1.925 1.962 2.304 3.352z"></path>
<path fill="#fafafa" style="fill: var(--color1, #fafafa)" d="M64 25.263v-18.265h3.538v2.924h0.203c0.35-0.98 0.959-1.754 1.828-2.32 0.88-0.577 1.873-0.866 2.979-0.866 0.226 0 0.491 0.011 0.795 0.033 0.316 0.011 0.57 0.027 0.762 0.049v3.398c-0.147-0.044-0.412-0.087-0.796-0.131-0.372-0.044-0.75-0.065-1.134-0.065-0.869 0-1.648 0.18-2.336 0.539-0.677 0.349-1.213 0.833-1.608 1.454-0.384 0.61-0.576 1.318-0.576 2.124v11.126h-3.656z"></path>
<path fill="#fafafa" style="fill: var(--color1, #fafafa)" d="M54.344 25.263c-1.82 0-3.395-0.38-4.726-1.139s-2.358-1.829-3.079-3.208c-0.71-1.39-1.065-3.010-1.065-4.86 0-1.839 0.349-3.459 1.048-4.86 0.71-1.401 1.703-2.492 2.979-3.272 1.287-0.791 2.796-1.187 4.527-1.187 1.054 0 2.075 0.166 3.062 0.497s1.875 0.855 2.663 1.572c0.788 0.716 1.409 1.647 1.864 2.791 0.466 1.144 0.699 2.524 0.699 4.138v1.251h-14.795v-2.615h12.931l-1.681 0.866c0-1.101-0.178-2.075-0.533-2.919s-0.888-1.502-1.598-1.973c-0.699-0.481-1.57-0.722-2.613-0.722s-1.936 0.241-2.68 0.722c-0.732 0.481-1.292 1.117-1.681 1.909s-0.582 1.657-0.582 2.598v1.78c0 1.23 0.222 2.272 0.666 3.128s1.060 1.508 1.847 1.957c0.799 0.449 1.725 0.674 2.779 0.674 0.688 0 1.309-0.096 1.864-0.289 0.566-0.192 1.054-0.481 1.464-0.866s0.721-0.861 0.932-1.428l3.428 0.626c-0.277 0.963-0.766 1.807-1.465 2.534s-1.581 1.294-2.646 1.7c-1.054 0.396-2.258 0.594-3.611 0.594z"></path>
<path fill="#fafafa" style="fill: var(--color1, #fafafa)" d="M46.213 7.158v2.834h-10.844v-2.834h10.844zM38.324 25.263v-20.211c0-1.123 0.264-2.057 0.791-2.802 0.538-0.756 1.237-1.317 2.097-1.684 0.871-0.378 1.804-0.567 2.801-0.567 0.767 0 1.421 0.059 1.959 0.178s0.934 0.221 1.186 0.308l-0.894 2.85c-0.172-0.054-0.395-0.113-0.67-0.178-0.263-0.065-0.596-0.097-0.997-0.097-0.905 0-1.558 0.216-1.959 0.648-0.401 0.421-0.601 1.036-0.601 1.846v19.709h-3.712z"></path>
<path fill="#fafafa" style="fill: var(--color1, #fafafa)" d="M36.107 7.158v2.834h-10.844v-2.834h10.844zM28.219 25.263v-20.211c0-1.123 0.264-2.057 0.791-2.802 0.538-0.756 1.237-1.317 2.097-1.684 0.871-0.378 1.804-0.567 2.801-0.567 0.767 0 1.421 0.059 1.959 0.178s0.934 0.221 1.186 0.308l-0.894 2.85c-0.172-0.054-0.395-0.113-0.67-0.178-0.263-0.065-0.596-0.097-0.997-0.097-0.905 0-1.558 0.216-1.959 0.648-0.401 0.421-0.601 1.036-0.601 1.846v19.709h-3.712z"></path>
<path fill="#fafafa" style="fill: var(--color1, #fafafa)" d="M17.291 25.263c-1.82 0-3.395-0.38-4.726-1.139s-2.358-1.829-3.079-3.208c-0.71-1.39-1.065-3.010-1.065-4.86 0-1.839 0.35-3.459 1.048-4.86 0.71-1.401 1.703-2.492 2.979-3.272 1.287-0.791 2.796-1.187 4.527-1.187 1.054 0 2.075 0.166 3.062 0.497s1.875 0.855 2.663 1.572c0.788 0.716 1.409 1.647 1.864 2.791 0.466 1.144 0.699 2.524 0.699 4.138v1.251h-14.795v-2.615h12.931l-1.681 0.866c0-1.101-0.178-2.075-0.533-2.919s-0.888-1.502-1.598-1.973c-0.699-0.481-1.57-0.722-2.613-0.722s-1.936 0.241-2.68 0.722c-0.732 0.481-1.293 1.117-1.681 1.909s-0.582 1.657-0.582 2.598v1.78c0 1.23 0.222 2.272 0.666 3.128s1.060 1.508 1.847 1.957c0.799 0.449 1.725 0.674 2.779 0.674 0.688 0 1.309-0.096 1.864-0.289 0.566-0.192 1.054-0.481 1.464-0.866s0.721-0.861 0.932-1.428l3.428 0.626c-0.277 0.963-0.766 1.807-1.465 2.534s-1.581 1.294-2.646 1.7c-1.054 0.396-2.258 0.594-3.611 0.594z"></path>
<path fill="#fafafa" style="fill: var(--color1, #fafafa)" d="M2.878 7.012h3.416v19.376c0.011 1.215-0.2 2.24-0.633 3.075s-1.065 1.464-1.898 1.887c-0.833 0.434-1.856 0.651-3.068 0.651h-0.696v-3.042h0.553c0.822 0 1.413-0.222 1.771-0.667s0.543-1.085 0.554-1.92v-19.36zM4.57 4.214c-0.601 0-1.112-0.206-1.534-0.618s-0.633-0.906-0.633-1.48c0-0.586 0.211-1.085 0.633-1.497s0.933-0.618 1.534-0.618c0.59 0 1.096 0.206 1.518 0.618 0.432 0.412 0.648 0.911 0.648 1.497 0 0.575-0.216 1.068-0.648 1.48-0.422 0.412-0.928 0.618-1.518 0.618z"></path>
</symbol>
<symbol id="icon-message-chat" viewBox="0 0 32 32">
<path fill="none" stroke="#fafafa" style="stroke: var(--color1, #fafafa)" stroke-linejoin="round" stroke-linecap="round" stroke-miterlimit="4" stroke-width="2.6667" d="M8.126 14.972c-0.083-0.534-0.126-1.081-0.126-1.638 0-5.891 4.807-10.667 10.737-10.667s10.737 4.776 10.737 10.667c0 1.331-0.245 2.605-0.693 3.779-0.093 0.244-0.14 0.366-0.161 0.461s-0.029 0.161-0.031 0.257c-0.002 0.097 0.011 0.205 0.037 0.42l0.537 4.36c0.058 0.472 0.087 0.708 0.009 0.88-0.069 0.15-0.191 0.27-0.343 0.335-0.173 0.075-0.409 0.040-0.879-0.029l-4.247-0.623c-0.222-0.033-0.333-0.049-0.434-0.048-0.1 0.001-0.169 0.008-0.267 0.028s-0.225 0.068-0.477 0.163c-1.178 0.441-2.454 0.683-3.787 0.683-0.558 0-1.105-0.042-1.64-0.124M10.175 29.333c3.953 0 7.158-3.283 7.158-7.333s-3.205-7.333-7.158-7.333c-3.953 0-7.158 3.283-7.158 7.333 0 0.814 0.13 1.597 0.369 2.329 0.101 0.309 0.152 0.464 0.168 0.57 0.017 0.11 0.020 0.172 0.014 0.284-0.006 0.107-0.033 0.227-0.086 0.469l-0.815 3.682 3.993-0.545c0.218-0.030 0.327-0.045 0.422-0.044 0.1 0.001 0.153 0.006 0.252 0.026 0.093 0.019 0.232 0.067 0.51 0.165 0.731 0.258 1.516 0.398 2.332 0.398z"></path>
</symbol>
<symbol id="icon-user" viewBox="0 0 32 32">
<path fill="none" stroke="#fafafa" style="stroke: var(--color1, #fafafa)" stroke-linejoin="round" stroke-linecap="round" stroke-miterlimit="4" stroke-width="2.6667" d="M26.667 28c0-1.861 0-2.791-0.23-3.548-0.517-1.705-1.851-3.039-3.556-3.556-0.757-0.23-1.687-0.23-3.548-0.23h-6.667c-1.861 0-2.791 0-3.548 0.23-1.705 0.517-3.038 1.851-3.556 3.556-0.23 0.757-0.23 1.687-0.23 3.548"></path>
<path fill="none" stroke="#fafafa" style="stroke: var(--color1, #fafafa)" stroke-linejoin="round" stroke-linecap="round" stroke-miterlimit="4" stroke-width="2.6667" d="M16 16c3.314 0 6-2.686 6-6s-2.686-6-6-6c-3.314 0-6 2.686-6 6s2.686 6 6 6z"></path>
</symbol>
</defs>
</svg>
