<!-- Generated by IcoMoon.io -->
<svg version="1.1" xmlns="http://www.w3.org/2000/svg" width="1024" height="1024" viewBox="0 0 1024 1024">
<title>Favicon</title>
<g id="icomoon-ignore">
</g>
<path fill="none" stroke="#fafafa" stroke-linejoin="round" stroke-linecap="round" stroke-miterlimit="4" stroke-width="85.3333" d="M545.186 640l-161.186-161.186"></path>
<path fill="none" stroke="#fafafa" stroke-linejoin="round" stroke-linecap="round" stroke-miterlimit="4" stroke-width="85.3333" d="M85.333 938.667c85.333 0 196.608 14.579 254.927-43.738 58.318-58.321 58.318-152.87 0-211.191-58.319-58.317-152.871-58.317-211.189 0-58.318 58.321 0 169.596-43.738 254.929z"></path>
<path fill="none" stroke="#fafafa" stroke-linejoin="round" stroke-linecap="round" stroke-miterlimit="4" stroke-width="85.3333" d="M341.331 682.667c-20.967-20.966-31.45-31.45-37.378-42.428-14.213-26.33-13.601-58.176 1.614-83.934 6.345-10.743 17.223-20.817 38.981-40.964l421.037-389.848c37.086-34.338 94.677-33.231 130.411 2.507 35.738 35.737 36.847 93.328 2.509 130.412l-389.85 421.037c-20.147 21.756-30.217 32.636-40.96 38.98-25.762 15.215-57.609 15.825-83.935 1.613-10.979-5.926-21.462-16.41-42.429-37.376z"></path>
</svg>
