<!-- Generated by IcoMoon.io -->
<svg version="1.1" xmlns="http://www.w3.org/2000/svg" width="1024" height="1024" viewBox="0 0 1024 1024">
<title>Favicon</title>
<g id="icomoon-ignore">
</g>
<path fill="none" stroke="#fafafa" stroke-linejoin="round" stroke-linecap="round" stroke-miterlimit="4" stroke-width="85.3333" d="M774.938 85.333h-525.873c-19.733 0-35.731 15.997-35.731 35.731 0 113.717 45.174 222.776 125.584 303.186l52.019 52.020c5.166 5.163 7.749 7.748 9.597 10.227 11.28 15.13 11.28 35.874 0 51.004-1.849 2.479-4.432 5.065-9.597 10.227l-52.019 52.019c-80.41 80.41-125.584 189.47-125.584 303.189 0 19.733 15.997 35.729 35.731 35.729h525.873c19.733 0 35.729-15.996 35.729-35.729 0-113.719-45.175-222.78-125.585-303.189l-52.019-52.019c-5.163-5.163-7.748-7.748-9.596-10.227-11.281-15.13-11.281-35.874 0-51.004 1.847-2.479 4.433-5.065 9.596-10.227l52.019-52.020c80.41-80.41 125.585-189.469 125.585-303.186 0-19.733-15.996-35.731-35.729-35.731z"></path>
</svg>
