<!-- Generated by IcoMoon.io -->
<svg version="1.1" xmlns="http://www.w3.org/2000/svg" width="4527" height="1024" viewBox="0 0 4527 1024">
<title>Favicon</title>
<g id="icomoon-ignore">
</g>
<path fill="#fafafa" d="M4269.32 485.053l7.486-157.954-138.014 85.923-42.792-71.002 146.572-72.031-146.572-72.031 42.792-72.031 138.014 85.923-7.486-157.954h84.518l-7.486 157.954 138.014-85.923 42.792 72.031-146.572 72.031 146.572 72.031-42.792 71.002-138.014-85.923 7.486 157.954h-84.518z"></path>
<path fill="#fafafa" d="M3615.572 461.2v347.221h-112.414v-585.51h109.293v96.363h7.804c13.188-31.772 33.83-56.91 61.936-75.415 28.101-18.853 64.189-28.28 108.253-28.28 39.553 0 74.073 8.38 103.564 25.138 29.842 16.41 52.914 41.024 69.222 73.843 16.653 32.819 24.98 73.495 24.98 122.025v371.835h-112.414v-358.219c0-42.246-11.102-75.415-33.312-99.505-22.205-24.44-52.391-36.66-90.554-36.66-26.026 0-49.443 5.935-70.263 17.806-20.469 11.522-36.605 28.106-48.397 49.753-11.798 21.647-17.699 48.181-17.699 79.604z"></path>
<path fill="#fafafa" d="M3179.531 808.421c-54.083 0-101.451-12.32-142.099-36.956-40.308-24.641-71.653-59.198-94.046-103.683-22.048-44.485-33.070-96.159-33.070-155.013 0-59.541 11.021-111.554 33.070-156.038 22.393-44.827 53.738-79.559 94.046-104.197 40.647-24.637 88.015-36.956 142.099-36.956 54.428 0 101.796 12.319 142.099 36.956 40.308 24.638 71.653 59.37 94.046 104.197 22.393 44.484 33.587 96.497 33.587 156.038 0 58.854-11.194 110.528-33.587 155.013s-53.738 79.042-94.046 103.683c-40.302 24.635-87.671 36.956-142.099 36.956zM3179.531 714.488c35.484 0 64.765-9.238 87.843-27.713 23.083-18.481 40.135-42.949 51.157-73.399 11.366-30.801 17.052-64.334 17.052-100.606 0-36.957-5.686-70.833-17.052-101.63-11.021-30.797-28.074-55.435-51.157-73.913-23.078-18.478-52.359-27.717-87.843-27.717-35.139 0-64.248 9.239-87.326 27.717-22.738 18.478-39.79 43.116-51.157 73.913s-17.052 64.674-17.052 101.63c0 36.272 5.686 69.805 17.052 100.606 11.366 30.451 28.419 54.919 51.157 73.399 23.078 18.475 52.186 27.713 87.326 27.713z"></path>
<path fill="#fafafa" d="M2844.667 363.405l-105.235 17.452c-6.769-19.163-19.407-36.785-37.926-52.869-18.168-16.083-45.412-24.124-81.737-24.124-32.763 0-60.184 7.186-82.265 21.558-21.725 14.029-32.585 31.995-32.585 53.895 0 19.162 7.297 34.732 21.903 46.708 14.956 11.976 38.637 21.558 71.044 28.744l95.625 20.531c54.488 11.976 95.264 30.797 122.33 56.461 27.066 25.666 40.599 58.515 40.599 98.548 0 34.563-10.326 65.358-30.984 92.392-20.652 26.694-49.324 47.735-86.005 63.138-36.681 15.053-79.064 22.582-127.138 22.582-66.953 0-121.441-13.856-163.468-41.574-42.022-27.718-67.843-66.727-77.458-117.032l111.648-16.422c7.119 28.058 21.547 49.276 43.267 63.644 22.081 14.374 50.575 21.558 85.477 21.558 37.748 0 68.021-7.696 90.813-23.094 23.148-15.403 34.719-34.051 34.719-55.948 0-36.271-28.133-60.739-84.399-73.399l-100.966-21.558c-55.91-12.321-97.221-31.655-123.931-58.003-26.355-26.691-39.532-60.225-39.532-100.604 0-33.877 9.793-63.647 29.378-89.311 19.946-25.664 47.19-45.511 81.737-59.541 34.897-14.372 74.606-21.558 119.124-21.558 64.819 0 115.566 13.516 152.247 40.549 37.036 27.033 61.612 62.792 73.717 107.276z"></path>
<path fill="#fafafa" d="M2048 808.421v-584.478h113.206v93.579h6.5c11.194-31.367 30.693-56.113 58.497-74.236 28.165-18.472 59.947-27.708 95.334-27.708 7.222 0 15.705 0.349 25.454 1.046 10.111 0.349 18.238 0.871 24.377 1.568v108.74c-4.694-1.394-13.183-2.789-25.46-4.182-11.916-1.394-24.010-2.091-36.287-2.091-27.804 0-52.725 5.751-74.752 17.252-21.666 11.153-38.815 26.662-51.453 46.528-12.277 19.517-18.416 42.172-18.416 67.962v356.019h-117z"></path>
<path fill="#fafafa" d="M1739.011 808.421c-58.228 0-108.641-12.148-151.245-36.444s-75.447-58.514-98.525-102.659c-22.722-44.479-34.083-96.326-34.083-155.522 0-58.856 11.183-110.698 33.549-155.525 22.722-44.827 54.498-79.73 95.329-104.71 41.186-25.322 89.471-37.983 144.858-37.983 33.727 0 66.388 5.304 97.986 15.912s60.001 27.375 85.213 50.302c25.207 22.927 45.088 52.697 59.645 89.311 14.913 36.614 22.366 80.757 22.366 132.427v40.035h-473.444v-83.665h413.798l-53.787 27.718c0-35.246-5.681-66.385-17.042-93.417-11.366-27.033-28.408-48.078-51.13-63.134-22.366-15.399-50.235-23.098-83.607-23.098-33.377 0-61.957 7.699-85.747 23.098-23.428 15.398-41.359 35.759-53.787 61.081-12.423 25.322-18.637 53.039-18.637 83.152v56.974c0 39.349 7.098 72.715 21.299 100.088 14.201 27.379 33.905 48.252 59.117 62.62 25.562 14.374 55.204 21.558 88.937 21.558 22.011 0 41.892-3.077 59.645-9.238 18.103-6.16 33.727-15.398 46.861-27.718 13.14-12.315 23.078-27.546 29.825-45.681l109.708 20.017c-8.876 30.801-24.501 57.829-46.867 81.101-22.366 23.266-50.591 41.402-84.674 54.407-33.733 12.66-72.251 18.993-115.566 18.993z"></path>
<path fill="#fafafa" d="M1478.807 229.053v90.688h-347.017v-90.688h347.017zM1226.38 808.421v-646.737c0-35.93 8.435-65.814 25.298-89.652 17.23-24.184 39.596-42.149 67.094-53.895 27.864-12.092 57.743-18.138 89.643-18.138 24.56 0 45.46 1.9 62.69 5.7s29.879 7.082 37.947 9.846l-28.597 91.206c-5.503-1.727-12.649-3.628-21.45-5.7-8.429-2.073-19.063-3.109-31.895-3.109-28.963 0-49.863 6.909-62.696 20.728-12.832 13.474-19.246 33.166-19.246 59.077v630.672h-118.789z"></path>
<path fill="#fafafa" d="M1155.438 229.053v90.688h-347.017v-90.688h347.017zM903.012 808.421v-646.737c0-35.93 8.435-65.814 25.298-89.652 17.23-24.184 39.596-42.149 67.094-53.895 27.864-12.092 57.743-18.138 89.643-18.138 24.56 0 45.46 1.9 62.69 5.7s29.879 7.082 37.947 9.846l-28.597 91.206c-5.503-1.727-12.649-3.628-21.45-5.7-8.429-2.073-19.063-3.109-31.895-3.109-28.963 0-49.863 6.909-62.696 20.728-12.832 13.474-19.246 33.166-19.246 59.077v630.672h-118.789z"></path>
<path fill="#fafafa" d="M553.326 808.421c-58.226 0-108.642-12.148-151.246-36.444s-75.445-58.514-98.523-102.659c-22.723-44.479-34.084-96.326-34.084-155.522 0-58.856 11.184-110.698 33.551-155.525 22.723-44.827 54.498-79.73 95.327-104.71 41.185-25.322 89.47-37.983 144.858-37.983 33.727 0 66.388 5.304 97.986 15.912s60.001 27.375 85.213 50.302c25.207 22.927 45.088 52.697 59.645 89.311 14.913 36.614 22.366 80.757 22.366 132.427v40.035h-473.443v-83.665h413.797l-53.787 27.718c0-35.246-5.681-66.385-17.042-93.417-11.366-27.033-28.408-48.078-51.13-63.134-22.366-15.399-50.235-23.098-83.607-23.098-33.376 0-61.957 7.699-85.744 23.098-23.432 15.398-41.362 35.759-53.788 61.081s-18.639 53.039-18.639 83.152v56.974c0 39.349 7.101 72.715 21.302 100.088 14.201 27.379 33.906 48.252 59.113 62.62 25.563 14.374 55.209 21.558 88.939 21.558 22.011 0 41.892-3.077 59.645-9.238 18.103-6.16 33.727-15.398 46.861-27.718 13.14-12.315 23.078-27.546 29.825-45.681l109.708 20.017c-8.876 30.801-24.501 57.829-46.867 81.101-22.366 23.266-50.591 41.402-84.674 54.407-33.733 12.66-72.251 18.993-115.566 18.993z"></path>
<path fill="#fafafa" d="M92.102 224.374h109.308v620.022c0.337 38.869-6.41 71.669-20.242 98.39-13.832 26.726-34.074 46.856-60.726 60.389-26.652 13.883-59.377 20.825-98.174 20.825h-22.266v-97.35h17.712c26.315 0 45.208-7.114 56.678-21.342 11.47-14.234 17.375-34.708 17.712-61.429v-619.504zM146.249 134.833c-19.23 0-35.592-6.594-49.087-19.783s-20.242-28.979-20.242-47.373c0-18.741 6.748-34.706 20.242-47.894s29.857-19.782 49.087-19.782c18.893 0 35.087 6.594 48.581 19.782 13.832 13.188 20.748 29.153 20.748 47.894 0 18.394-6.916 34.185-20.748 47.373-13.495 13.189-29.688 19.783-48.581 19.783z"></path>
</svg>
