<!-- Generated by IcoMoon.io -->
<svg version="1.1" xmlns="http://www.w3.org/2000/svg" width="1024" height="1024" viewBox="0 0 1024 1024">
<title>Favicon</title>
<g id="icomoon-ignore">
</g>
<path fill="none" stroke="#fafafa" stroke-linejoin="round" stroke-linecap="round" stroke-miterlimit="4" stroke-width="85.3333" d="M260.026 479.095c-2.652-17.092-4.028-34.598-4.028-52.429 0-188.513 153.826-341.333 343.579-341.333 189.751 0 343.578 152.82 343.578 341.333 0 42.586-7.846 83.349-22.187 120.939-2.978 7.808-4.471 11.712-5.146 14.758-0.67 3.021-0.93 5.146-1.003 8.239-0.073 3.119 0.35 6.558 1.199 13.431l17.173 139.529c1.86 15.104 2.79 22.656 0.277 28.147-2.202 4.813-6.11 8.631-10.97 10.722-5.547 2.385-13.077 1.28-28.134-0.926l-135.902-19.921c-7.1-1.041-10.645-1.562-13.879-1.54-3.196 0.017-5.406 0.252-8.538 0.909-3.162 0.666-7.202 2.18-15.279 5.205-37.687 14.118-78.532 21.841-121.19 21.841-17.843 0-35.366-1.353-52.476-3.955M325.614 938.667c126.503 0 229.053-105.062 229.053-234.667s-102.549-234.667-229.053-234.667c-126.502 0-229.053 105.062-229.053 234.667 0 26.052 4.144 51.11 11.793 74.526 3.233 9.899 4.85 14.848 5.381 18.227 0.554 3.533 0.651 5.513 0.445 9.079-0.198 3.418-1.053 7.279-2.762 15.002l-26.084 117.833 127.778-17.451c6.975-0.951 10.462-1.429 13.507-1.408 3.206 0.021 4.908 0.196 8.053 0.823 2.986 0.593 7.426 2.159 16.305 5.295 23.395 8.256 48.505 12.74 74.637 12.74z"></path>
</svg>
