<!-- Generated by IcoMoon.io -->
<svg version="1.1" xmlns="http://www.w3.org/2000/svg" width="1024" height="1024" viewBox="0 0 1024 1024">
<title>Favicon</title>
<g id="icomoon-ignore">
</g>
<path fill="none" stroke="#fafafa" stroke-linejoin="round" stroke-linecap="round" stroke-miterlimit="4" stroke-width="85.3333" d="M853.333 896c0-59.546 0-89.314-7.347-113.54-16.546-54.545-59.234-97.233-113.779-113.779-24.226-7.347-53.995-7.347-113.54-7.347h-213.333c-59.544 0-89.316 0-113.542 7.347-54.545 16.546-97.23 59.234-113.776 113.779-7.349 24.226-7.349 53.995-7.349 113.54"></path>
<path fill="none" stroke="#fafafa" stroke-linejoin="round" stroke-linecap="round" stroke-miterlimit="4" stroke-width="85.3333" d="M512 512c106.039 0 192-85.961 192-192s-85.961-192-192-192c-106.039 0-192 85.961-192 192s85.961 192 192 192z"></path>
</svg>
